<?xml version="1.0" encoding="UTF-8" standalone="no"?><!DOCTYPE svg PUBLIC "-//W3C//DTD SVG 1.1//EN" "http://www.w3.org/Graphics/SVG/1.1/DTD/svg11.dtd"><svg width="100%" height="100%" viewBox="0 0 161 176" version="1.1" xmlns="http://www.w3.org/2000/svg" xmlns:xlink="http://www.w3.org/1999/xlink" xml:space="preserve" xmlns:serif="http://www.serif.com/" style="fill-rule:evenodd;clip-rule:evenodd;stroke-linecap:square;stroke-linejoin:round;stroke-miterlimit:1.5;"><g id="biblia"><g id="biblio"><path d="M142.891,110.054l-123.402,0l0,31.635l123.402,0c-2.406,-10.375 -2.458,-20.916 0,-31.635Z" style="fill:#ebebeb;"/><path d="M21.888,115.999l117.867,0l0.567,0.218l0,0.44l-0.567,0.218l-117.867,0l-0.132,-0.213c0.11,-0.021 0.199,-0.114 0.199,-0.226c0,-0.11 -0.089,-0.203 -0.199,-0.224l0.132,-0.213Z" style="fill:#4c4343;"/><path d="M22.404,120.561l116.551,0l0.561,0.218l0,0.44l-0.561,0.218l-116.551,0l-0.132,-0.215c0.11,-0.019 0.198,-0.114 0.198,-0.224c0,-0.11 -0.088,-0.203 -0.198,-0.224l0.132,-0.213Z" style="fill:#4c4343;"/><path d="M22.402,125.121l116.123,0l0.558,0.22l0,0.438l-0.558,0.22l-116.123,0l-0.13,-0.215c0.11,-0.019 0.196,-0.114 0.196,-0.224c0,-0.11 -0.086,-0.205 -0.196,-0.224l0.13,-0.215Z" style="fill:#4c4343;"/><path d="M22.404,129.536l116.551,0l0.561,0.22l0,0.438l-0.561,0.22l-116.551,0l-0.132,-0.215c0.11,-0.019 0.198,-0.114 0.198,-0.224c0,-0.11 -0.088,-0.205 -0.198,-0.224l0.132,-0.215Z" style="fill:#4c4343;"/><path d="M21.888,134.245l117.867,0l0.567,0.221l0,0.437l-0.567,0.219l-117.867,0l-0.132,-0.214c0.11,-0.019 0.199,-0.113 0.199,-0.224c0,-0.11 -0.089,-0.204 -0.199,-0.224l0.132,-0.215Z" style="fill:#4c4343;"/><path d="M142.891,109.858l-121.403,0c-4.184,0 -3.628,3.565 -3.628,7.957l0,15.917c0,4.393 -0.272,7.957 3.628,7.957l121.403,0" style="fill:none;stroke:#7c7c7c;stroke-width:5.31px;"/></g><g id="biblio1" serif:id="biblio"><path d="M142.963,48.706l-60.627,-21.609l-5.742,19.132l60.627,21.608c0.75,-6.678 2.639,-13.062 5.742,-19.131Z" style="fill:#ebebeb;"/><path d="M85.777,32.303l52.147,18.586l0.202,0.219l-0.08,0.265l-0.281,0.047l-52.147,-18.587l-0.017,-0.149c0.051,0.004 0.105,-0.038 0.126,-0.106c0.02,-0.067 -0.001,-0.136 -0.044,-0.166l0.094,-0.109Z" style="fill:#4c4343;"/><path d="M86.949,36.819l49.524,17.651l0.199,0.217l-0.08,0.266l-0.278,0.047l-49.524,-17.651l-0.017,-0.15c0.05,0.005 0.105,-0.039 0.125,-0.106c0.02,-0.067 -0.001,-0.136 -0.044,-0.165l0.095,-0.109Z" style="fill:#4c4343;"/><path d="M85.838,40.519l49.342,17.587l0.197,0.218l-0.079,0.264l-0.277,0.049l-49.343,-17.587l-0.016,-0.149c0.05,0.005 0.104,-0.04 0.124,-0.106c0.02,-0.067 0.001,-0.137 -0.043,-0.165l0.095,-0.111Z" style="fill:#4c4343;"/><path d="M82.69,43.397l51.588,18.387l0.199,0.218l-0.08,0.265l-0.278,0.048l-51.588,-18.387l-0.017,-0.15c0.05,0.005 0.105,-0.039 0.125,-0.105c0.02,-0.067 0,-0.138 -0.044,-0.166l0.095,-0.11Z" style="fill:#4c4343;"/><path d="M81.811,27.445l-5.629,18.246c0,0 11.508,-4.781 5.629,-18.246Z" style="fill:#d9d9d9;"/><path d="M143.945,48.924l-60.632,-21.61c-1.97,-0.702 -2.355,1.547 -3.152,4.203l-2.889,9.626c-0.798,2.657 -1.573,4.767 0.264,5.421l60.631,21.611" style="fill:none;stroke:#7c7c7c;stroke-width:1.81px;stroke-linecap:round;"/></g><g id="biblio11" serif:id="biblio1"><path d="M140.322,72.81l-116.016,0c1.102,9.772 0.996,19.698 0,29.739l116.016,0l0,-29.739Z" style="fill:#ebebeb;"/><path d="M137.966,77.387l-111.959,0l-0.54,0.23l0,0.46l0.54,0.229l111.959,0l0.125,-0.224c-0.104,-0.021 -0.19,-0.119 -0.19,-0.234c0,-0.118 0.086,-0.216 0.19,-0.237l-0.125,-0.224Z" style="fill:#756b6b;"/><path d="M137.478,82.142l-110.712,0l-0.533,0.229l0,0.46l0.533,0.23l110.712,0l0.123,-0.226c-0.104,-0.019 -0.188,-0.117 -0.188,-0.235c0,-0.115 0.084,-0.213 0.188,-0.234l-0.123,-0.224Z" style="fill:#756b6b;"/><path d="M137.478,86.895l-110.304,0l-0.531,0.231l0,0.458l0.531,0.231l110.304,0l0.123,-0.226c-0.103,-0.019 -0.186,-0.119 -0.186,-0.234c0,-0.116 0.083,-0.215 0.186,-0.235l-0.123,-0.225Z" style="fill:#756b6b;"/><path d="M137.478,91.497l-110.712,0l-0.533,0.229l0,0.461l0.533,0.229l110.712,0l0.123,-0.226c-0.104,-0.019 -0.188,-0.119 -0.188,-0.234c0,-0.116 0.084,-0.214 0.188,-0.235l-0.123,-0.224Z" style="fill:#756b6b;"/><path d="M137.966,96.404l-111.959,0l-0.54,0.229l0,0.46l0.54,0.23l111.959,0l0.125,-0.224c-0.104,-0.021 -0.19,-0.119 -0.19,-0.235c0,-0.117 0.086,-0.215 0.19,-0.236l-0.125,-0.224Z" style="fill:#756b6b;"/><path d="M22.486,70.988l113.551,0c1.872,0 3.393,3.715 3.393,8.293l0,16.586c0,4.579 -1.521,8.294 -3.393,8.294l-113.551,0" style="fill:none;stroke:#595959;stroke-width:4.55px;stroke-linecap:round;"/></g><g id="biblio2"><path d="M93.692,54.815l-81.768,0c-0.886,4.525 -0.933,8.834 0,12.888l81.768,0c-2.924,-3.95 -2.97,-8.241 0,-12.888Z" style="fill:#ebebeb;"/><path d="M13.274,54.311l77.459,0l0.373,0.126l0,0.252l-0.373,0.126l-77.459,0l-0.088,-0.124c0.073,-0.01 0.132,-0.065 0.132,-0.128c0,-0.063 -0.059,-0.117 -0.132,-0.129l0.088,-0.123Z" style="fill:#7e7e7e;"/><path d="M12.859,57.879l77.331,0l0.374,0.126l0,0.252l-0.374,0.126l-77.331,0l-0.088,-0.124c0.073,-0.01 0.132,-0.065 0.132,-0.128c0,-0.063 -0.059,-0.117 -0.132,-0.127l0.088,-0.125Z" style="fill:#7e7e7e;"/><path d="M12.813,60.671l77.331,0l0.375,0.126l0,0.252l-0.375,0.126l-77.331,0l-0.087,-0.125c0.073,-0.01 0.131,-0.064 0.131,-0.127c0,-0.063 -0.058,-0.118 -0.131,-0.128l0.087,-0.124Z" style="fill:#7e7e7e;"/><path d="M12.93,63.67l77.379,0l0.379,0.126l0,0.252l-0.379,0.126l-77.379,0l-0.088,-0.123c0.073,-0.012 0.133,-0.066 0.133,-0.129c0,-0.063 -0.06,-0.118 -0.133,-0.128l0.088,-0.124Z" style="fill:#7e7e7e;"/><path d="M92.781,54.815l-80.414,0c-1.326,0 -2.404,1.444 -2.404,3.222l0,6.444c0,1.779 1.078,3.222 2.404,3.222l80.414,0" style="fill:none;stroke:#7c7c7c;stroke-width:1.56px;stroke-linejoin:miter;stroke-miterlimit:1;"/></g></g></svg>