<?xml version="1.0" encoding="UTF-8" standalone="no"?><!DOCTYPE svg PUBLIC "-//W3C//DTD SVG 1.1//EN" "http://www.w3.org/Graphics/SVG/1.1/DTD/svg11.dtd"><svg width="100%" height="100%" viewBox="0 0 119 118" version="1.1" xmlns="http://www.w3.org/2000/svg" xmlns:xlink="http://www.w3.org/1999/xlink" xml:space="preserve" xmlns:serif="http://www.serif.com/" style="fill-rule:evenodd;clip-rule:evenodd;stroke-linejoin:round;stroke-miterlimit:1.41421;"><g id="games"><g><path d="M22.812,41.491c-2.431,0 -4.797,-0.253 -7.053,-0.731c-0.01,0.898 -0.091,1.013 0.915,1.332c3.341,1.056 8.46,1.102 11.966,0.212c1.308,-0.33 1.239,-0.438 1.217,-1.54c-2.251,0.474 -4.614,0.727 -7.045,0.727Zm-5.602,-7.86c0.04,0.063 0.08,0.123 0.131,0.196c0.688,0.935 0.764,1.449 -0.27,2.389c-0.83,0.758 -1.33,1.27 -1.322,2.617l0.007,0.647c0.044,0.046 0.107,0.084 0.179,0.122c2.197,0.47 4.5,0.717 6.877,0.717c2.435,0 4.797,-0.263 7.044,-0.755l0,-0.391c0,-1.475 -0.439,-2.072 -1.357,-2.946c-0.948,-0.902 -0.998,-1.382 -0.176,-2.293c0.102,-0.113 0.176,-0.22 0.23,-0.321c-1.862,0.263 -3.778,0.407 -5.741,0.407c-1.913,0 -3.783,-0.137 -5.602,-0.389Zm8.65,-10.863c1.684,0 2.249,7.995 2.249,7.995c0,1.175 -0.565,2.131 -2.249,2.131l-6.101,0c-1.685,0 -2.248,-0.956 -2.248,-2.131c0,0 0.563,-7.995 2.248,-7.995l6.101,0Zm2.012,-6.199c-0.482,2.11 -0.552,3.596 -0.02,5.485c-3.313,-0.276 -6.683,-0.279 -10.105,-0.023c0.707,-1.964 0.651,-3.431 0.023,-5.462l1.61,0l0,1.479l1.221,0l0,-1.479l1.61,0l0,1.479l1.221,0l0,-1.479l1.61,0l0,1.479l1.22,0l0,-1.479l1.61,0Z" style="fill:#7c7c7c;"/><path d="M33.406,30.811c0.028,0.044 0.056,0.087 0.093,0.138c0.491,0.668 0.545,1.035 -0.193,1.706c-0.592,0.541 -0.949,0.906 -0.943,1.868l0.004,0.462c0.033,0.033 0.078,0.059 0.129,0.087c1.567,0.334 3.211,0.511 4.907,0.511c1.738,0 3.423,-0.187 5.027,-0.539l0,-0.279c0,-1.053 -0.314,-1.478 -0.969,-2.102c-0.676,-0.643 -0.712,-0.986 -0.125,-1.636c0.073,-0.081 0.125,-0.157 0.164,-0.23c-1.328,0.188 -2.696,0.29 -4.097,0.29c-1.365,0 -2.7,-0.097 -3.997,-0.276m3.997,5.609c-1.735,0 -3.423,-0.181 -5.033,-0.522c-0.007,0.641 -0.065,0.722 0.653,0.95c2.384,0.754 6.037,0.786 8.539,0.152c0.933,-0.235 0.884,-0.313 0.869,-1.1c-1.607,0.339 -3.293,0.52 -5.028,0.52m4.85,-7.224c-0.022,0.302 -0.059,0.515 -0.191,0.672c-1.501,0.249 -3.056,0.385 -4.659,0.385c-1.528,0 -3.016,-0.122 -4.453,-0.349c-0.067,-0.114 -0.052,-0.242 0.005,-0.391c0.154,-0.393 0.609,-0.879 0.914,-1.253l2.375,-2.875c0.505,-0.611 1.118,-1.201 0.335,-1.487c-0.317,-0.113 -0.641,-0.202 -0.965,-0.3c-0.585,-0.179 -1.009,-0.319 -1.63,-0.319c-0.023,0.597 -0.054,0.646 -0.386,0.601c-0.491,-0.067 -0.734,-0.271 -0.925,-0.601c-0.268,-0.458 -0.294,-0.903 -0.303,-1.394c-0.014,-0.678 0.706,-0.713 1.208,-1.073c0.683,-0.493 1.293,-1.173 1.814,-1.882c0.264,-0.36 0.459,-0.825 0.85,-1.056c0.204,-0.121 0.282,-0.047 0.653,0.127l0.602,0.291l-0.042,-1.643c0.412,-0.136 0.512,-0.1 0.908,0.113c0.603,0.329 1.114,0.791 1.628,1.259l-0.124,0.417l0.478,-0.127l0.21,0.208c1.719,1.722 1.907,4.589 1.887,6.879c-0.011,1.261 -0.095,2.514 -0.189,3.798" style="fill:#ececec;fill-rule:nonzero;"/></g><g><path d="M60.355,44.058c-0.246,-0.194 -0.278,-0.565 -0.069,-0.827c0.207,-0.263 0.575,-0.317 0.821,-0.123c0.207,0.165 0.259,0.453 0.147,0.697l2.835,2.246l-0.211,0.267l-2.844,-2.253c-0.209,0.142 -0.483,0.149 -0.679,-0.007" style="fill:#7c7c7c;fill-rule:nonzero;"/><path d="M49.271,48.822c-0.928,-2.104 -0.642,-4.582 0.841,-4.921c0.901,-0.208 2.166,-0.078 3.094,2.027c0,0 2.261,4.715 0.907,5.312l-0.641,0.283c-1.393,0.613 -3.273,-0.596 -4.201,-2.701" style="fill:#a39f9f;fill-rule:nonzero;"/><path d="M83.643,55.827l-1.932,0.063l0.498,15.213l1.931,-0.063l-0.497,-15.213Z" style="fill:#7f7f7f;"/><path d="M7.192,53.028c4.384,-1.933 10.348,0.883 13.223,5.988l28.308,-12.681l0.655,1.487c0.475,1.078 1.697,1.597 2.808,1.232l8.922,-3.775c1.164,-0.513 1.698,-1.86 1.191,-3.008l-0.515,-1.478l24.655,-11.043l10.75,24.39c0,0 -18.132,6.604 -49.52,11.915c-38.828,6.569 -41.691,4.969 -45.362,-2.599c-1.826,-3.763 0.5,-8.496 4.885,-10.428" style="fill:#ececec;fill-rule:nonzero;"/><path d="M101.488,34.792c-0.439,-0.994 1.16,-2.663 3.571,-3.725c0.38,-0.167 0.755,-0.306 1.121,-0.424c-1.192,-1.623 -12.793,-17.622 -8.666,-19.751c4.2,-2.166 8.338,17.766 8.735,19.73c1.939,-0.605 3.605,-0.507 3.97,0.322c0.365,0.83 -0.686,2.124 -2.441,3.149c1.182,1.617 13.103,18.12 8.671,19.758c-4.356,1.611 -8.338,-17.748 -8.733,-19.723c-0.334,0.192 -0.689,0.375 -1.068,0.542c-2.411,1.063 -4.721,1.118 -5.16,0.122" style="fill:#a39f9f;fill-rule:nonzero;"/><path d="M106.339,32.655c1.029,2.334 -0.03,5.06 -2.364,6.09l-3.119,1.374c-2.334,1.029 -5.06,-0.029 -6.09,-2.363c-1.029,-2.335 0.03,-5.062 2.365,-6.091l3.118,-1.374c2.334,-1.029 5.061,0.03 6.09,2.364" style="fill:#7c7c7c;fill-rule:nonzero;"/><path d="M86.469,29.819l4.331,-1.909c4.343,-1.914 4.765,-2.612 6.68,1.731l6.902,15.661c1.915,4.343 1.69,4.924 -2.655,6.838l-4.538,2l-10.72,-24.321Z" style="fill:#a39f9f;fill-rule:nonzero;"/><path d="M87.91,31.212c0.211,0.477 0.769,0.694 1.248,0.483c0.479,-0.21 0.695,-0.769 0.484,-1.247c-0.211,-0.479 -0.769,-0.696 -1.248,-0.485c-0.478,0.211 -0.695,0.77 -0.484,1.249" style="fill:#595959;fill-rule:nonzero;"/><path d="M88.918,33.497c0.21,0.479 0.769,0.696 1.248,0.485c0.478,-0.211 0.695,-0.769 0.484,-1.247c-0.211,-0.479 -0.77,-0.696 -1.248,-0.485c-0.479,0.211 -0.695,0.77 -0.484,1.247" style="fill:#595959;fill-rule:nonzero;"/><path d="M89.926,35.784c0.21,0.479 0.769,0.696 1.247,0.484c0.479,-0.21 0.696,-0.769 0.485,-1.247c-0.211,-0.478 -0.77,-0.696 -1.248,-0.484c-0.478,0.211 -0.695,0.769 -0.484,1.247" style="fill:#595959;fill-rule:nonzero;"/><path d="M90.934,38.071c0.21,0.478 0.769,0.696 1.247,0.485c0.479,-0.212 0.696,-0.771 0.485,-1.249c-0.211,-0.477 -0.77,-0.695 -1.248,-0.484c-0.478,0.211 -0.695,0.769 -0.484,1.248" style="fill:#595959;fill-rule:nonzero;"/><path d="M91.942,40.358c0.211,0.478 0.769,0.695 1.247,0.484c0.478,-0.211 0.696,-0.769 0.485,-1.248c-0.212,-0.479 -0.77,-0.695 -1.248,-0.484c-0.478,0.21 -0.696,0.769 -0.484,1.248" style="fill:#595959;fill-rule:nonzero;"/><path d="M93.041,42.852c0.211,0.479 0.77,0.695 1.248,0.485c0.478,-0.211 0.695,-0.77 0.484,-1.248c-0.211,-0.479 -0.769,-0.696 -1.247,-0.484c-0.479,0.21 -0.696,0.769 -0.485,1.247" style="fill:#595959;fill-rule:nonzero;"/><path d="M94.049,45.139c0.211,0.479 0.769,0.695 1.248,0.485c0.478,-0.211 0.695,-0.77 0.484,-1.248c-0.211,-0.479 -0.769,-0.696 -1.248,-0.485c-0.478,0.211 -0.695,0.77 -0.484,1.248" style="fill:#595959;fill-rule:nonzero;"/><path d="M35.432,54.093c0.211,0.478 0.77,0.695 1.248,0.484c0.479,-0.211 0.695,-0.769 0.485,-1.248c-0.211,-0.478 -0.77,-0.695 -1.248,-0.484c-0.479,0.211 -0.695,0.77 -0.485,1.248" style="fill:#a39f9f;fill-rule:nonzero;"/><path d="M36.44,56.38c0.211,0.478 0.769,0.694 1.248,0.484c0.478,-0.211 0.695,-0.77 0.485,-1.248c-0.211,-0.479 -0.77,-0.695 -1.249,-0.484c-0.478,0.21 -0.695,0.769 -0.484,1.248" style="fill:#a39f9f;fill-rule:nonzero;"/><path d="M37.448,58.667c0.211,0.478 0.769,0.694 1.248,0.484c0.478,-0.211 0.695,-0.77 0.485,-1.248c-0.212,-0.479 -0.771,-0.695 -1.249,-0.485c-0.478,0.211 -0.695,0.77 -0.484,1.249" style="fill:#a39f9f;fill-rule:nonzero;"/><path d="M38.456,60.954c0.211,0.477 0.77,0.694 1.248,0.483c0.478,-0.21 0.695,-0.769 0.484,-1.247c-0.211,-0.479 -0.769,-0.696 -1.247,-0.485c-0.479,0.211 -0.696,0.77 -0.485,1.249" style="fill:#a39f9f;fill-rule:nonzero;"/><path d="M39.464,63.24c0.211,0.478 0.77,0.695 1.248,0.484c0.478,-0.211 0.695,-0.769 0.484,-1.247c-0.21,-0.479 -0.769,-0.696 -1.247,-0.485c-0.479,0.211 -0.696,0.77 -0.485,1.248" style="fill:#a39f9f;fill-rule:nonzero;"/><path d="M40.563,65.735c0.211,0.477 0.77,0.695 1.249,0.483c0.477,-0.21 0.694,-0.769 0.484,-1.247c-0.211,-0.479 -0.77,-0.696 -1.248,-0.485c-0.479,0.211 -0.696,0.77 -0.485,1.249" style="fill:#a39f9f;fill-rule:nonzero;"/><path d="M95.056,47.426c0.211,0.478 0.77,0.695 1.249,0.484c0.478,-0.21 0.695,-0.769 0.484,-1.248c-0.211,-0.479 -0.77,-0.695 -1.248,-0.485c-0.479,0.211 -0.695,0.77 -0.485,1.249" style="fill:#595959;fill-rule:nonzero;"/><path d="M96.065,49.713c0.21,0.477 0.769,0.694 1.248,0.483c0.478,-0.21 0.694,-0.769 0.484,-1.247c-0.211,-0.479 -0.77,-0.696 -1.248,-0.485c-0.479,0.212 -0.695,0.77 -0.484,1.249" style="fill:#595959;fill-rule:nonzero;"/><path d="M97.073,51.999c0.21,0.478 0.769,0.695 1.247,0.484c0.479,-0.211 0.696,-0.769 0.485,-1.247c-0.211,-0.479 -0.77,-0.696 -1.248,-0.485c-0.478,0.211 -0.695,0.77 -0.484,1.248" style="fill:#595959;fill-rule:nonzero;"/><path d="M61.671,40.779c-0.873,-0.577 -3.669,-0.864 -3.083,-5.592c4.47,-3.025 10.283,-1.17 11.574,1.757c0.004,0.01 -1.089,0.792 -1.876,2.223c-1.585,2.885 -5.929,3.162 -5.923,3.179l-0.692,-1.567Z" style="fill:#b5b4b4;fill-rule:nonzero;"/><path d="M2.466,72.738c2.364,-0.629 7.287,-3.383 12.457,-5.662c5.17,-2.279 8.948,-3.353 8.515,-4.335c-0.434,-0.984 -0.883,-1.772 -6.053,0.507c-5.17,2.278 -15.957,9.767 -14.919,9.49" style="fill:#a39f9f;fill-rule:nonzero;"/><path d="M81.642,17.597l-1.932,0.063l0.869,26.474l1.932,-0.063l-0.869,-26.474Z" style="fill:#7f7f7f;"/><path d="M68.757,22.131l-1.93,0.063l0.921,28.117l1.931,-0.064l-0.922,-28.116Z" style="fill:#7f7f7f;"/><path d="M51.756,60.946c4.276,-1.14 13.188,-6.123 22.545,-10.247c9.356,-4.125 16.194,-6.068 15.409,-7.848c-0.785,-1.779 -1.597,-3.206 -10.954,0.918c-9.357,4.125 -28.879,17.678 -27,17.177" style="fill:#a39f9f;fill-rule:nonzero;"/><path d="M51.228,32.007c4.277,-1.14 13.187,-6.123 22.544,-10.247c9.357,-4.124 16.194,-6.067 15.41,-7.847c-0.785,-1.78 -1.597,-3.206 -10.954,0.918c-9.357,4.124 -28.879,17.677 -27,17.176" style="fill:#a39f9f;fill-rule:nonzero;"/><path d="M79.141,74.074c1.253,2.842 4.572,4.13 7.413,2.878c2.842,-1.253 4.13,-4.571 2.878,-7.413c-1.253,-2.842 -4.571,-4.13 -7.413,-2.877c-2.841,1.252 -4.13,4.571 -2.878,7.412" style="fill:#6c6c6c;fill-rule:nonzero;"/><path d="M81.064,73.227c0.785,1.78 2.863,2.586 4.643,1.801c1.779,-0.783 2.586,-2.862 1.802,-4.641c-0.785,-1.78 -2.863,-2.587 -4.643,-1.803c-1.779,0.785 -2.586,2.863 -1.802,4.643" style="fill:#7f7f7f;fill-rule:nonzero;"/><path d="M73.083,77.502c2.514,0.122 6.659,-3.446 11.477,-5.57c4.816,-2.123 8.784,-2.106 7.491,-5.042c-1.294,-2.936 -2.46,-5.366 -7.277,-3.243c-4.817,2.124 -12.796,13.802 -11.691,13.855" style="fill:#a39f9f;fill-rule:nonzero;"/></g><g id="balaa"><path d="M102.596,100.249c0,0.029 0,0.058 0,0.086c0,7.832 -6.444,14.276 -14.274,14.276c-7.832,0 -14.276,-6.444 -14.276,-14.276c0,-0.028 0,-0.057 0.001,-0.086c-0.001,-0.029 -0.001,-0.058 -0.001,-0.086c0,-7.832 6.444,-14.276 14.276,-14.276c7.83,0 14.274,6.444 14.274,14.276c0,0.028 0,0.057 0,0.086Z" style="fill:#ccc;"/><path d="M78.665,110.777c-0.349,-0.29 -0.6,-0.592 -0.895,-0.905c1.444,0.024 2.514,-0.339 3.816,-1.238c1.089,-0.687 2.506,-4.736 1.961,-8.405c-0.355,-3.149 -0.999,-2.55 -1.76,-7.294c-0.331,-1.824 0.008,-4.345 2.518,-6.381c0.685,-0.194 0.967,-0.267 2.091,-0.45c-4.18,2.839 -3.715,5.173 -3.445,6.996c0.141,2.581 1.528,3.898 1.883,7.171c0.544,3.793 -1.16,8.369 -2.249,9.056c-1.303,0.899 -2.475,1.475 -3.919,1.45l-0.001,0Z" style="fill:#f7f7f7;"/><path d="M99.535,91.406c0.352,0.409 0.548,0.684 0.855,1.182c0.306,3.6 0.434,6.663 -0.422,9.638c-1.137,3.216 -3.57,7.011 -3.277,8.037c-0.027,0.495 -0.055,1.012 0.185,1.485c-0.268,0.123 -0.513,0.336 -0.781,0.46c-0.153,-0.558 -0.194,-1.161 -0.146,-1.697c0.278,-2.037 1.048,-3.582 2.041,-5.441c0.628,-1.257 0.988,-2.514 1.483,-3.771c0.601,-1.868 0.578,-4.897 0.062,-9.893Z" style="fill:#f7f7f7;"/></g><path d="M30.57,92.893c-0.157,-0.363 -0.012,-0.808 0.353,-1.032l6.738,-4.111c0.474,-0.858 1.229,-2.351 -4.045,-2.536c-2.516,-0.088 -1.186,-5.265 1.687,-7.02c2.875,-1.753 7.079,0.013 5.711,3.376c-1.538,3.785 -0.071,3.754 1.161,3.426l6.149,-3.751c0.401,-0.245 0.911,-0.134 1.143,0.245l4.229,6.388c-0.099,0.617 -0.983,1.3 -3.151,0.651c-2.617,-0.784 -4.048,2.703 -2.826,4.704c1.221,2.002 5.846,3.181 6.083,1.32c0.391,-3.05 1.453,-3.163 2.095,-3.045l3.546,6.334c0.232,0.379 0.096,0.884 -0.303,1.127l-17.401,10.618c-0.012,0.007 -0.025,0.015 -0.037,0.021l-0.159,0.098c-0.353,0.218 -0.822,0.099 -1.048,-0.266l-3.807,-6.169c-0.797,-0.427 -2.418,-2.415 -2.606,2.457c-0.089,2.324 -4.668,2.471 -6.292,-0.161c-1.624,-2.633 -0.176,-7.402 2.951,-6.182c3.517,1.373 3.393,0.385 3.091,-0.748l-3.168,-5.13c-0.119,-0.192 -0.146,-0.413 -0.094,-0.614Z" style="fill:#ececec;"/></g></svg>