<?xml version="1.0" encoding="UTF-8" standalone="no"?><!DOCTYPE svg PUBLIC "-//W3C//DTD SVG 1.1//EN" "http://www.w3.org/Graphics/SVG/1.1/DTD/svg11.dtd"><svg width="100%" height="100%" viewBox="0 0 104 100" version="1.1" xmlns="http://www.w3.org/2000/svg" xmlns:xlink="http://www.w3.org/1999/xlink" xml:space="preserve" xmlns:serif="http://www.serif.com/" style="fill-rule:evenodd;clip-rule:evenodd;stroke-linejoin:round;stroke-miterlimit:1.41421;"><g id="gifts"><g><path d="M73.411,1.043l0.227,0.004l0.228,0.009l0.228,0.011l0.231,0.016l0.231,0.019l0.231,0.022l0.234,0.027l0.233,0.03l0.235,0.034l0.235,0.038l0.221,0.039l0.132,0.026l0.119,0.024l0.117,0.025l0.119,0.026l0.118,0.026l0.119,0.028l0.118,0.03l0.119,0.029l0.118,0.032l0.119,0.032l0.118,0.033l0.119,0.035l0.119,0.035l0.119,0.037l0.118,0.038l0.118,0.038l0.119,0.04l0.118,0.041l0.118,0.043l0.118,0.043l0.118,0.044l0.118,0.046l0.117,0.046l0.118,0.048l0.117,0.049l0.234,0.101l0.116,0.052l0.116,0.053l0.117,0.055l0.115,0.056l0.115,0.056l0.116,0.058l0.114,0.058l0.229,0.121l0.113,0.063l0.114,0.063l0.113,0.064l0.017,0.01l0.095,0.055l0.113,0.066l0.112,0.067l0.111,0.068l0.111,0.069l0.111,0.071l0.111,0.071l0.109,0.072l0.109,0.073l0.109,0.075l0.109,0.075l0.107,0.076l0.107,0.077l0.107,0.079l0.106,0.079l0.105,0.08l0.105,0.081l0.104,0.083l0.104,0.083l0.103,0.084l0.102,0.085l0.103,0.086l0.101,0.087l0.1,0.088l0.1,0.088l0.099,0.09l0.099,0.09l0.098,0.091l0.098,0.093l0.096,0.092l0.096,0.094l0.095,0.095l0.095,0.095l0.094,0.096l0.093,0.097l0.093,0.098l0.092,0.099l0.091,0.099l0.09,0.1l0.091,0.101l0.089,0.102l0.088,0.102l0.088,0.103l0.087,0.104l0.086,0.105l0.086,0.105l0.084,0.106l0.085,0.107l0.083,0.107l0.084,0.108l0.081,0.109l0.082,0.109l0.081,0.111l0.08,0.11l0.08,0.112l0.078,0.112l0.082,0.115l0.066,0.129l0.069,0.133l0.067,0.133l0.052,0.106l0.014,0.029l0.065,0.134l0.064,0.137l0.063,0.136l0.061,0.137l0.06,0.139l0.058,0.139l0.056,0.139l0.056,0.141l0.055,0.141l0.052,0.142l0.051,0.143l0.05,0.143l0.048,0.144l0.047,0.144l0.045,0.146l0.043,0.145l0.042,0.147l0.04,0.147l0.038,0.147l0.037,0.148l0.035,0.148l0.033,0.149l0.032,0.15l0.03,0.149l0.028,0.15l0.027,0.15l0.024,0.151l0.023,0.15l0.021,0.151l0.019,0.15l0.018,0.151l0.015,0.152l0.013,0.151l0.012,0.151l0.01,0.151l0.009,0.151l0.006,0.151l0.004,0.15l0.003,0.151l0.001,0.15l-0.001,0.149l-0.003,0.15l-0.004,0.149l-0.006,0.149l-0.008,0.149l-0.01,0.147l-0.012,0.148l-0.013,0.146l-0.015,0.147l-0.017,0.145l-0.018,0.145l-0.02,0.144l-0.021,0.144l-0.024,0.143l-0.024,0.141l-0.026,0.142l-0.028,0.14l-0.029,0.139l-0.031,0.139l-0.033,0.138l-0.033,0.137l-0.035,0.136l-0.037,0.135l-0.037,0.134l-0.039,0.134l-0.04,0.131l-0.042,0.132l-0.043,0.13l-0.044,0.129l-0.045,0.128l-0.046,0.127l-0.048,0.126l-0.048,0.125l-0.049,0.124l-0.051,0.123l-0.052,0.122l-0.052,0.12l-0.053,0.12l-0.055,0.119l-0.056,0.118l-0.055,0.116l-0.058,0.116l-0.058,0.114l-0.059,0.113l-0.059,0.112l-0.06,0.112l-0.061,0.11l-0.062,0.109l-0.063,0.108l-0.063,0.107l-0.064,0.107l-0.065,0.105l-0.065,0.104l-0.065,0.104l-0.067,0.101l-0.066,0.102l-0.068,0.1l-0.075,0.111l-0.131,0.184l-0.14,0.193l-0.141,0.189l-0.144,0.185l-0.145,0.182l-0.147,0.178l-0.148,0.176l-0.15,0.172l-0.151,0.169l-0.153,0.167l-0.006,0.006l-0.146,0.158l-0.155,0.162l-0.154,0.159l-0.157,0.156l-0.157,0.154l-0.158,0.151l-0.16,0.149l-0.161,0.147l-0.161,0.144l-0.162,0.143l-0.164,0.14l-0.164,0.138l-0.165,0.136l-0.166,0.134l-0.166,0.133l-0.168,0.13l-0.168,0.129l-0.17,0.127l-0.169,0.125l-0.171,0.123l-0.171,0.122l-0.172,0.121l-0.172,0.118l-0.174,0.118l-0.174,0.115l-0.174,0.115l-0.175,0.113l-0.177,0.112l-0.176,0.11l-0.176,0.109l-0.179,0.108l-0.178,0.106l-0.178,0.106l-0.179,0.104l-0.18,0.103l-0.18,0.102l-0.181,0.1l-0.181,0.1l-0.182,0.098l-0.182,0.098l-0.183,0.096l-0.182,0.095l-0.184,0.095l-0.184,0.093l-0.184,0.092l-0.185,0.092l-0.184,0.09l-0.186,0.09l-0.186,0.088l-0.185,0.088l-0.187,0.086l-0.186,0.086l-0.187,0.085l-0.187,0.085l-0.188,0.083l-0.187,0.082l-0.187,0.081l-0.188,0.081l-0.14,0.059l-0.049,0.022l-0.186,0.081l-0.188,0.081l-0.186,0.079l-0.188,0.079l-0.188,0.079l-0.187,0.078l-0.188,0.076l-0.188,0.076l-0.188,0.076l-0.187,0.074l-0.188,0.074l-0.188,0.073l-0.188,0.072l-0.188,0.071l-0.187,0.072l-0.187,0.069l-0.188,0.07l-0.187,0.069l-0.188,0.067l-0.187,0.067l-0.187,0.067l-0.187,0.066l-0.186,0.065l-0.186,0.064l-0.186,0.064l-0.186,0.063l-0.185,0.062l-0.189,0.063l-0.054,0.018l-0.31,0.106l-0.366,0.123l-0.364,0.121l-0.363,0.117l-0.361,0.115l-0.359,0.112l-0.357,0.11l-0.355,0.107l-0.351,0.104l-0.35,0.102l-0.346,0.098l-0.344,0.097l-0.341,0.093l-0.338,0.091l-0.333,0.088l-0.171,0.044l-0.159,0.044l-0.325,0.088l-0.322,0.086l-0.318,0.083l-0.314,0.08l-0.31,0.078l-0.306,0.074l-0.301,0.072l-0.298,0.069l-0.292,0.066l-0.288,0.064l-0.284,0.061l-0.279,0.058l-0.275,0.055l-0.269,0.053l-0.266,0.05l-0.26,0.047l-0.257,0.044l-0.252,0.041l-0.248,0.039l-0.009,0.001l-0.228,0.038l-0.127,0.021l-0.12,0.018l-0.119,0.018l-0.119,0.017l-0.119,0.017l-0.118,0.015l-0.118,0.015l-0.118,0.013l-0.117,0.013l-0.119,0.012l-0.119,0.011l-0.119,0.01l-0.121,0.01l-0.122,0.008l-0.125,0.007l-0.127,0.005l-0.129,0.004l-0.132,0.003l-0.138,0.001l-0.142,-0.002l-0.149,-0.004l-0.156,-0.008l-0.166,-0.011l-0.175,-0.016l-0.19,-0.023l-0.204,-0.03l-0.222,-0.04l-0.245,-0.054l-0.27,-0.072l-0.301,-0.097l-0.335,-0.129l-0.324,-0.15l-0.244,-0.132l-0.21,-0.125l-0.22,-0.144l-0.227,-0.166l-0.235,-0.192l-0.238,-0.217l-0.238,-0.246l-0.2,-0.236l-0.14,-0.182l-0.102,-0.143l-0.096,-0.141l-0.09,-0.14l-0.085,-0.139l-0.079,-0.137l-0.074,-0.136l-0.068,-0.135l-0.065,-0.132l-0.06,-0.131l-0.056,-0.129l-0.052,-0.127l-0.049,-0.126l-0.045,-0.124l-0.043,-0.122l-0.039,-0.121l-0.036,-0.119l-0.034,-0.117l-0.032,-0.116l-0.029,-0.114l-0.028,-0.113l-0.025,-0.112l-0.023,-0.11l-0.021,-0.109l-0.02,-0.108l-0.018,-0.107l-0.017,-0.106l-0.015,-0.105l-0.013,-0.104l-0.014,-0.117l-0.02,-0.189l-0.017,-0.201l-0.012,-0.198l-0.009,-0.196l-0.005,-0.194l-0.001,-0.193l0.002,-0.192l0.004,-0.19l0.008,-0.19l0.01,-0.189l0.013,-0.189l0.016,-0.188l0.018,-0.188l0.02,-0.187l0,-0.001l0.018,-0.189l0.02,-0.189l0.022,-0.189l0.025,-0.191l0.027,-0.19l0.029,-0.191l0.03,-0.192l0.033,-0.193l0.036,-0.193l0.037,-0.194l0.039,-0.195l0.041,-0.196l0.043,-0.197l0.046,-0.198l0.047,-0.198l0.049,-0.2l0.052,-0.2l0.053,-0.202l0.056,-0.202l0.057,-0.204l0.06,-0.204l0.062,-0.205l0.063,-0.206l0.066,-0.207l0.068,-0.208l0.07,-0.21l0.073,-0.209l0.074,-0.211l0.077,-0.211l0.078,-0.213l0.081,-0.213l0.083,-0.214l0.029,-0.075l0.052,-0.141l0.083,-0.218l0.084,-0.218l0.087,-0.219l0.089,-0.22l0.091,-0.221l0.093,-0.222l0.096,-0.222l0.098,-0.223l0.101,-0.223l0.102,-0.224l0.105,-0.225l0.107,-0.225l0.11,-0.226l0.112,-0.226l0.114,-0.227l0.117,-0.227l0.119,-0.228l0.122,-0.227l0.124,-0.228l0.127,-0.228l0.129,-0.229l0.131,-0.229l0.135,-0.229l0.137,-0.229l0.139,-0.229l0.142,-0.23l0.144,-0.229l0.082,-0.127l0.064,-0.103l0.146,-0.232l0.15,-0.232l0.151,-0.231l0.155,-0.232l0.158,-0.231l0.16,-0.231l0.159,-0.226l0.086,-0.12l0.083,-0.115l0.084,-0.115l0.085,-0.115l0.085,-0.115l0.086,-0.115l0.087,-0.115l0.087,-0.115l0.089,-0.114l0.089,-0.115l0.089,-0.115l0.091,-0.113l0.091,-0.115l0.092,-0.114l0.092,-0.114l0.094,-0.113l0.093,-0.114l0.095,-0.113l0.096,-0.113l0.096,-0.113l0.097,-0.113l0.098,-0.113l0.098,-0.112l0.099,-0.112l0.101,-0.112l0.101,-0.112l0.101,-0.112l0.102,-0.111l0.104,-0.112l0.103,-0.11l0.105,-0.111l0.105,-0.11l0.107,-0.11l0.107,-0.11l0.107,-0.11l0.109,-0.109l0.109,-0.109l0.01,-0.01l0.099,-0.1l0.111,-0.11l0.111,-0.109l0.111,-0.109l0.113,-0.109l0.113,-0.109l0.113,-0.108l0.115,-0.108l0.116,-0.107l0.116,-0.107l0.118,-0.107l0.117,-0.106l0.119,-0.106l0.12,-0.106l0.121,-0.105l0.121,-0.105l0.122,-0.105l0.123,-0.104l0.124,-0.104l0.124,-0.103l0.126,-0.103l0.127,-0.103l0.127,-0.102l0.128,-0.102l0.13,-0.103l0.138,-0.105l0.14,-0.107l0.142,-0.107l0.142,-0.105l0.143,-0.105l0.145,-0.103l0.146,-0.103l0.147,-0.103l0.147,-0.101l0.149,-0.101l0.15,-0.099l0.151,-0.099l0.152,-0.099l0.154,-0.097l0.154,-0.096l0.155,-0.096l0.157,-0.094l0.158,-0.094l0.159,-0.092l0.159,-0.092l0.162,-0.09l0.065,-0.037l0.097,-0.054l0.162,-0.089l0.164,-0.089l0.165,-0.088l0.167,-0.087l0.167,-0.085l0.169,-0.084l0.171,-0.083l0.17,-0.081l0.173,-0.081l0.174,-0.079l0.175,-0.077l0.177,-0.077l0.177,-0.075l0.18,-0.074l0.18,-0.071l0.182,-0.071l0.183,-0.069l0.184,-0.068l0.186,-0.066l0.187,-0.063l0.189,-0.063l0.19,-0.06l0.191,-0.059l0.193,-0.058l0.194,-0.055l0.196,-0.053l0.197,-0.051l0.199,-0.049l0.2,-0.047l0.201,-0.045l0.203,-0.043l0.205,-0.041l0.206,-0.038l0.207,-0.035l0.209,-0.034l0.21,-0.03l0.212,-0.029l0.214,-0.025l0.214,-0.023l0.216,-0.02l0.218,-0.017l0.219,-0.015l0.22,-0.011l0.222,-0.008l0.222,-0.006l0.225,-0.002l0.225,0.002Zm-1.191,7.085l-0.124,0.004l-0.125,0.005l-0.124,0.007l-0.124,0.008l-0.125,0.01l-0.125,0.011l-0.125,0.013l-0.125,0.014l-0.126,0.017l-0.124,0.017l-0.126,0.019l-0.125,0.021l-0.126,0.022l-0.125,0.024l-0.125,0.024l-0.126,0.027l-0.125,0.028l-0.125,0.029l-0.125,0.03l-0.126,0.033l-0.125,0.033l-0.125,0.034l-0.125,0.036l-0.124,0.037l-0.125,0.038l-0.125,0.04l-0.125,0.041l-0.124,0.042l-0.124,0.044l-0.124,0.045l-0.123,0.045l-0.124,0.047l-0.124,0.048l-0.122,0.05l-0.123,0.049l-0.123,0.052l-0.122,0.053l-0.122,0.053l-0.121,0.055l-0.122,0.055l-0.121,0.057l-0.121,0.058l-0.12,0.059l-0.12,0.059l-0.119,0.06l-0.119,0.062l-0.119,0.063l-0.118,0.063l-0.118,0.064l-0.118,0.065l-0.117,0.066l-0.116,0.067l-0.116,0.067l-0.116,0.069l-0.115,0.069l-0.114,0.07l-0.114,0.071l-0.113,0.071l-0.113,0.072l-0.113,0.073l-0.111,0.074l-0.111,0.074l-0.11,0.075l-0.107,0.074l-0.107,0.074l-0.107,0.075l-0.105,0.075l-0.105,0.075l-0.105,0.076l-0.103,0.076l-0.103,0.077l-0.103,0.077l-0.103,0.077l-0.101,0.078l-0.101,0.078l-0.101,0.079l-0.099,0.079l-0.099,0.08l-0.099,0.079l-0.098,0.08l-0.098,0.081l-0.097,0.081l-0.096,0.081l-0.097,0.081l-0.095,0.082l-0.095,0.082l-0.093,0.082l-0.094,0.083l-0.093,0.083l-0.092,0.083l-0.093,0.084l-0.091,0.085l-0.091,0.083l-0.09,0.085l-0.089,0.085l-0.09,0.085l-0.088,0.086l-0.088,0.085l-0.088,0.086l-0.087,0.086l-0.086,0.087l-0.086,0.087l-0.085,0.086l-0.084,0.088l-0.085,0.087l-0.084,0.088l-0.083,0.087l-0.082,0.089l-0.082,0.088l-0.081,0.089l-0.081,0.089l-0.08,0.088l-0.08,0.089l-0.079,0.09l-0.079,0.089l-0.078,0.089l-0.078,0.091l-0.077,0.09l-0.076,0.09l-0.076,0.09l-0.075,0.091l-0.075,0.09l-0.075,0.091l-0.073,0.091l-0.073,0.091l-0.145,0.182l-0.143,0.184l-0.141,0.183l-0.138,0.183l-0.136,0.185l-0.135,0.184l-0.132,0.185l-0.13,0.185l-0.128,0.185l-0.125,0.186l-0.124,0.185l-0.122,0.185l-0.119,0.186l-0.118,0.186l-0.115,0.185l-0.113,0.186l-0.112,0.185l-0.109,0.185l-0.108,0.185l-0.105,0.185l-0.103,0.185l-0.101,0.184l-0.099,0.184l-0.097,0.183l-0.095,0.183l-0.093,0.182l-0.091,0.182l-0.089,0.181l-0.087,0.181l-0.085,0.18l-0.083,0.18l-0.082,0.179l-0.079,0.178l-0.077,0.177l-0.075,0.177l-0.073,0.175l-0.072,0.174l-0.069,0.174l-0.068,0.173l-0.065,0.172l-0.064,0.17l-0.061,0.169l-0.06,0.168l-0.058,0.168l-0.056,0.165l-0.054,0.165l-0.052,0.164l-0.051,0.161l-0.048,0.161l-0.047,0.159l-0.045,0.157l-0.042,0.156l-0.042,0.154l-0.039,0.154l-0.037,0.151l-0.035,0.149l-0.034,0.148l-0.032,0.147l-0.03,0.144l-0.029,0.142l-0.025,0.141l-0.026,0.139l-0.022,0.137l-0.021,0.135l-0.019,0.132l-0.018,0.131l-0.015,0.128l-0.014,0.127l-0.013,0.124l-0.01,0.122l-0.009,0.119l-0.007,0.118l-0.005,0.115l-0.004,0.113l-0.001,0.11l0,0.108l0.002,0.105l0.003,0.103l0.006,0.1l0.006,0.097l0.009,0.095l0.01,0.092l0.006,0.045l0.006,0.045l0.007,0.044l0.014,0.085l0.008,0.041l0.008,0.041l0.009,0.04l0.009,0.039l0.009,0.039l0.01,0.038l0.01,0.037l0.012,0.036l0.01,0.036l0.012,0.035l0.024,0.068l0.013,0.032l0.027,0.063l0.014,0.03l0.015,0.029l0.014,0.029l0.016,0.028l0.015,0.027l0.016,0.026l0.016,0.025l0.018,0.025l0.017,0.024l0.017,0.023l0.007,0.007l0.014,0.015l0.009,0.007l0.009,0.006l0.01,0.006l0.01,0.007l0.011,0.006l0.025,0.01l0.025,0.011l0.03,0.009l0.032,0.008l0.033,0.008l0.037,0.006l0.039,0.006l0.042,0.005l0.044,0.004l0.046,0.003l0.048,0.002l0.052,0.001l0.053,0.001l0.055,-0.001l0.058,-0.002l0.06,-0.002l0.063,-0.003l0.064,-0.004l0.066,-0.006l0.07,-0.006l0.07,-0.006l0.073,-0.008l0.075,-0.008l0.077,-0.01l0.079,-0.01l0.081,-0.01l0.084,-0.012l0.085,-0.013l0.087,-0.013l0.089,-0.015l0.091,-0.015l0.092,-0.016l0.191,-0.034l0.198,-0.038l0.205,-0.041l0.212,-0.044l0.218,-0.048l0.225,-0.05l0.231,-0.054l0.237,-0.056l0.243,-0.06l0.248,-0.063l0.254,-0.066l0.26,-0.069l0.264,-0.072l0.27,-0.075l0.273,-0.078l0.279,-0.081l0.282,-0.084l0.287,-0.086l0.291,-0.09l0.295,-0.092l0.298,-0.095l0.302,-0.098l0.305,-0.1l0.307,-0.103l0.311,-0.106l0.313,-0.109l0.316,-0.111l0.318,-0.114l0.321,-0.116l0.321,-0.119l0.324,-0.122l0.326,-0.123l0.326,-0.127l0.327,-0.129l0.329,-0.131l0.329,-0.134l0.165,-0.068l0.165,-0.068l0.165,-0.069l0.165,-0.07l0.166,-0.07l0.165,-0.071l0.165,-0.071l0.165,-0.072l0.165,-0.072l0.166,-0.073l0.164,-0.074l0.165,-0.074l0.165,-0.075l0.165,-0.075l0.164,-0.076l0.164,-0.076l0.164,-0.076l0.164,-0.078l0.163,-0.078l0.163,-0.078l0.163,-0.079l0.162,-0.08l0.162,-0.08l0.162,-0.081l0.161,-0.081l0.161,-0.081l0.16,-0.083l0.159,-0.082l0.16,-0.084l0.159,-0.083l0.157,-0.084l0.158,-0.085l0.157,-0.085l0.156,-0.086l0.156,-0.086l0.155,-0.086l0.154,-0.088l0.153,-0.087l0.153,-0.088l0.152,-0.089l0.151,-0.089l0.15,-0.089l0.15,-0.09l0.149,-0.09l0.147,-0.091l0.147,-0.092l0.146,-0.091l0.145,-0.093l0.144,-0.092l0.143,-0.093l0.141,-0.094l0.141,-0.093l0.14,-0.095l0.138,-0.095l0.138,-0.095l0.136,-0.095l0.135,-0.096l0.134,-0.097l0.133,-0.097l0.131,-0.097l0.13,-0.098l0.129,-0.098l0.127,-0.098l0.127,-0.099l0.124,-0.1l0.124,-0.099l0.122,-0.1l0.121,-0.1l0.119,-0.101l0.117,-0.101l0.116,-0.102l0.115,-0.102l0.113,-0.102l0.111,-0.103l0.11,-0.103l0.108,-0.103l0.107,-0.104l0.105,-0.104l0.103,-0.104l0.101,-0.105l0.1,-0.105l0.098,-0.106l0.096,-0.106l0.094,-0.106l0.093,-0.106l0.09,-0.107l0.089,-0.107l0.087,-0.107l0.085,-0.108l0.083,-0.108l0.08,-0.109l0.079,-0.109l0.077,-0.108l0.075,-0.109l0.073,-0.11l0.07,-0.11l0.069,-0.11l0.034,-0.055l0.032,-0.055l0.033,-0.056l0.032,-0.055l0.031,-0.056l0.03,-0.055l0.031,-0.056l0.029,-0.055l0.029,-0.056l0.029,-0.056l0.028,-0.056l0.027,-0.056l0.027,-0.055l0.026,-0.057l0.026,-0.056l0.025,-0.056l0.024,-0.057l0.024,-0.056l0.024,-0.056l0.022,-0.056l0.022,-0.057l0.022,-0.056l0.021,-0.058l0.02,-0.056l0.02,-0.057l0.019,-0.057l0.018,-0.057l0.018,-0.056l0.018,-0.057l0.016,-0.058l0.016,-0.057l0.015,-0.057l0.015,-0.057l0.014,-0.058l0.013,-0.057l0.014,-0.057l0.012,-0.058l0.011,-0.057l0.011,-0.058l0.01,-0.058l0.01,-0.058l0.009,-0.057l0.008,-0.058l0.008,-0.058l0.006,-0.058l0.007,-0.058l0.005,-0.058l0.006,-0.058l0.004,-0.058l0.003,-0.058l0.003,-0.059l0.002,-0.058l0.002,-0.058l0,-0.058l0,-0.059l0,-0.058l-0.001,-0.06l-0.002,-0.058l-0.003,-0.059l-0.004,-0.058l-0.004,-0.059l-0.004,-0.059l-0.006,-0.059l-0.006,-0.058l-0.008,-0.059l-0.007,-0.06l-0.009,-0.059l-0.009,-0.059l-0.01,-0.059l-0.011,-0.059l-0.011,-0.059l-0.012,-0.059l-0.013,-0.06l-0.014,-0.059l-0.014,-0.059l-0.015,-0.06l-0.016,-0.059l-0.017,-0.06l-0.018,-0.059l-0.018,-0.06l-0.019,-0.059l-0.02,-0.06l-0.021,-0.06l-0.021,-0.06l-0.022,-0.06l-0.023,-0.059l-0.023,-0.06l-0.025,-0.06l-0.025,-0.06l-0.027,-0.06l-0.026,-0.06l-0.028,-0.06l-0.029,-0.06l-0.029,-0.06l-0.03,-0.061l-0.031,-0.059l-0.032,-0.061l-0.033,-0.06l-0.033,-0.06l-0.034,-0.061l-0.036,-0.06l-0.035,-0.061l-0.042,-0.069l-0.043,-0.069l-0.043,-0.069l-0.043,-0.067l-0.043,-0.067l-0.044,-0.067l-0.044,-0.065l-0.044,-0.065l-0.044,-0.065l-0.045,-0.064l-0.045,-0.063l-0.045,-0.062l-0.045,-0.061l-0.046,-0.062l-0.045,-0.06l-0.046,-0.06l-0.046,-0.059l-0.047,-0.059l-0.046,-0.057l-0.048,-0.057l-0.047,-0.057l-0.047,-0.056l-0.048,-0.056l-0.048,-0.054l-0.047,-0.054l-0.049,-0.054l-0.048,-0.052l-0.049,-0.052l-0.048,-0.052l-0.05,-0.051l-0.049,-0.05l-0.05,-0.05l-0.049,-0.049l-0.05,-0.048l-0.05,-0.048l-0.051,-0.047l-0.05,-0.047l-0.051,-0.046l-0.051,-0.045l-0.051,-0.045l-0.051,-0.044l-0.051,-0.044l-0.052,-0.042l-0.052,-0.043l-0.053,-0.042l-0.051,-0.041l-0.053,-0.041l-0.052,-0.039l-0.053,-0.04l-0.053,-0.039l-0.053,-0.038l-0.054,-0.038l-0.053,-0.037l-0.054,-0.037l-0.054,-0.036l-0.054,-0.035l-0.054,-0.035l-0.055,-0.034l-0.054,-0.034l-0.055,-0.033l-0.054,-0.033l-0.055,-0.032l-0.055,-0.032l-0.056,-0.03l-0.055,-0.031l-0.056,-0.03l-0.055,-0.029l-0.056,-0.029l-0.057,-0.028l-0.055,-0.027l-0.057,-0.028l-0.056,-0.026l-0.057,-0.026l-0.057,-0.026l-0.057,-0.025l-0.057,-0.024l-0.057,-0.024l-0.057,-0.023l-0.058,-0.024l-0.057,-0.022l-0.058,-0.022l-0.058,-0.021l-0.057,-0.021l-0.059,-0.021l-0.058,-0.019l-0.058,-0.019l-0.059,-0.019l-0.058,-0.018l-0.059,-0.018l-0.059,-0.018l-0.059,-0.016l-0.058,-0.017l-0.059,-0.016l-0.06,-0.015l-0.059,-0.015l-0.06,-0.014l-0.119,-0.027l-0.119,-0.025l-0.12,-0.024l-0.121,-0.021l-0.12,-0.02l-0.121,-0.018l-0.122,-0.015l-0.121,-0.014l-0.122,-0.013l-0.123,-0.01l-0.122,-0.009l-0.123,-0.007l-0.123,-0.005l-0.123,-0.004l-0.123,-0.001l-0.124,0l-0.124,0.001Z" style="fill:#7c7c7c;"/><path d="M28.713,4.955l0.188,0.003l0.188,0.006l0.186,0.009l0.185,0.01l0.183,0.014l0.183,0.015l0.181,0.018l0.18,0.02l0.179,0.022l0.177,0.025l0.176,0.026l0.176,0.029l0.173,0.031l0.173,0.031l0.172,0.035l0.17,0.037l0.168,0.037l0.168,0.04l0.166,0.042l0.165,0.043l0.163,0.045l0.163,0.046l0.162,0.048l0.159,0.049l0.159,0.052l0.157,0.051l0.157,0.054l0.155,0.055l0.154,0.057l0.152,0.058l0.153,0.059l0.15,0.06l0.149,0.061l0.148,0.064l0.123,0.053l0.024,0.01l0.146,0.063l0.145,0.064l0.145,0.065l0.143,0.066l0.142,0.068l0.141,0.068l0.14,0.07l0.139,0.07l0.137,0.071l0.137,0.072l0.136,0.073l0.134,0.074l0.134,0.075l0.133,0.076l0.132,0.077l0.13,0.077l0.129,0.078l0.129,0.079l0.127,0.08l0.127,0.08l0.126,0.081l0.124,0.083l0.124,0.082l0.123,0.083l0.121,0.085l0.119,0.083l0.113,0.081l0.11,0.081l0.109,0.08l0.109,0.082l0.108,0.081l0.108,0.083l0.106,0.082l0.106,0.083l0.105,0.083l0.207,0.168l0.103,0.084l0.102,0.084l0.101,0.085l0.1,0.086l0.1,0.086l0.099,0.086l0.098,0.086l0.194,0.174l0.029,0.026l0.068,0.06l0.096,0.085l0.096,0.087l0.095,0.087l0.094,0.086l0.094,0.087l0.093,0.088l0.184,0.175l0.091,0.089l0.089,0.088l0.09,0.089l0.177,0.178l0.174,0.18l0.086,0.09l0.085,0.089l0.085,0.091l0.088,0.095l0.162,0.177l0.162,0.183l0.161,0.183l0.158,0.184l0.155,0.184l0.152,0.185l0.151,0.185l0.147,0.187l0.145,0.186l0.142,0.187l0.14,0.187l0.137,0.188l0.135,0.188l0.132,0.188l0.131,0.189l0.127,0.188l0.021,0.031l0.108,0.155l0.127,0.186l0.125,0.185l0.123,0.186l0.12,0.186l0.119,0.186l0.115,0.186l0.114,0.185l0.111,0.186l0.11,0.186l0.107,0.186l0.105,0.186l0.103,0.185l0.1,0.185l0.099,0.185l0.097,0.185l0.095,0.184l0.092,0.184l0.091,0.184l0.088,0.184l0.086,0.182l0.085,0.183l0.082,0.182l0.08,0.182l0.079,0.181l0.076,0.181l0.075,0.18l0.072,0.177l0.001,0.002l0.076,0.176l0.074,0.177l0.072,0.175l0.07,0.175l0.068,0.174l0.066,0.173l0.066,0.174l0.062,0.172l0.061,0.171l0.059,0.171l0.058,0.17l0.055,0.17l0.055,0.168l0.052,0.168l0.037,0.124l0.014,0.043l0.053,0.164l0.051,0.165l0.05,0.163l0.048,0.163l0.046,0.162l0.044,0.161l0.042,0.161l0.041,0.16l0.039,0.159l0.037,0.158l0.036,0.158l0.034,0.157l0.032,0.156l0.03,0.155l0.028,0.155l0.017,0.097l0.012,0.057l0.03,0.153l0.029,0.153l0.026,0.152l0.025,0.152l0.023,0.152l0.02,0.151l0.019,0.152l0.016,0.151l0.015,0.152l0.013,0.151l0.01,0.153l0.007,0.152l0.005,0.154l0.003,0.154l0,0.155l-0.003,0.156l-0.006,0.158l-0.01,0.16l-0.013,0.161l-0.017,0.164l-0.021,0.166l-0.026,0.169l-0.031,0.172l-0.034,0.161l-0.024,0.103l-0.022,0.09l-0.024,0.092l-0.027,0.091l-0.028,0.094l-0.03,0.094l-0.033,0.096l-0.035,0.097l-0.038,0.098l-0.041,0.099l-0.043,0.101l-0.046,0.101l-0.05,0.103l-0.053,0.104l-0.057,0.104l-0.061,0.106l-0.065,0.107l-0.088,0.136l-0.123,0.172l-0.18,0.224l-0.258,0.27l-0.288,0.248l-0.271,0.195l-0.251,0.155l-0.229,0.121l-0.209,0.097l-0.192,0.078l-0.176,0.063l-0.163,0.051l-0.15,0.043l-0.142,0.035l-0.133,0.03l-0.126,0.025l-0.12,0.021l-0.115,0.018l-0.112,0.016l-0.108,0.014l-0.105,0.011l-0.103,0.01l-0.101,0.009l-0.099,0.007l-0.099,0.006l-0.097,0.005l-0.097,0.004l-0.097,0.003l-0.097,0.003l-0.096,0.002l-0.096,0.001l-0.104,0l-0.005,0l-0.182,0.005l-0.197,0.003l-0.2,0l-0.202,-0.001l-0.206,-0.003l-0.21,-0.005l-0.213,-0.007l-0.218,-0.008l-0.222,-0.011l-0.225,-0.012l-0.229,-0.014l-0.234,-0.016l-0.238,-0.017l-0.242,-0.019l-0.245,-0.022l-0.25,-0.022l-0.253,-0.025l-0.257,-0.026l-0.262,-0.029l-0.263,-0.03l-0.268,-0.032l-0.112,-0.014l-0.161,-0.016l-0.275,-0.028l-0.279,-0.03l-0.283,-0.032l-0.285,-0.034l-0.288,-0.035l-0.291,-0.038l-0.294,-0.039l-0.296,-0.042l-0.299,-0.043l-0.301,-0.046l-0.303,-0.047l-0.305,-0.05l-0.307,-0.052l-0.309,-0.054l-0.31,-0.056l-0.134,-0.025l-0.179,-0.03l-0.316,-0.054l-0.317,-0.056l-0.317,-0.058l-0.32,-0.061l-0.32,-0.064l-0.322,-0.066l-0.318,-0.067l-0.165,-0.036l-0.162,-0.035l-0.162,-0.037l-0.161,-0.037l-0.162,-0.038l-0.163,-0.038l-0.162,-0.039l-0.162,-0.04l-0.162,-0.041l-0.162,-0.041l-0.163,-0.042l-0.162,-0.042l-0.163,-0.044l-0.162,-0.044l-0.062,-0.017l-0.101,-0.025l-0.164,-0.043l-0.164,-0.043l-0.164,-0.044l-0.164,-0.044l-0.164,-0.046l-0.163,-0.046l-0.164,-0.047l-0.164,-0.048l-0.163,-0.049l-0.164,-0.05l-0.163,-0.051l-0.163,-0.052l-0.164,-0.052l-0.162,-0.053l-0.163,-0.055l-0.163,-0.056l-0.163,-0.056l-0.162,-0.057l-0.163,-0.059l-0.162,-0.059l-0.161,-0.062l-0.163,-0.061l-0.161,-0.063l-0.161,-0.064l-0.161,-0.065l-0.161,-0.067l-0.161,-0.068l-0.161,-0.069l-0.16,-0.07l-0.159,-0.072l-0.161,-0.072l-0.159,-0.075l-0.159,-0.076l-0.159,-0.077l-0.158,-0.079l-0.159,-0.079l-0.158,-0.083l-0.157,-0.083l-0.158,-0.085l-0.157,-0.086l-0.156,-0.089l-0.157,-0.09l-0.156,-0.093l-0.155,-0.093l-0.156,-0.096l-0.155,-0.098l-0.154,-0.1l-0.153,-0.102l-0.154,-0.104l-0.153,-0.106l-0.152,-0.109l-0.153,-0.111l-0.15,-0.114l-0.151,-0.115l-0.15,-0.119l-0.15,-0.121l-0.149,-0.124l-0.148,-0.127l-0.148,-0.129l-0.146,-0.133l-0.039,-0.036l-0.108,-0.099l-0.146,-0.136l-0.145,-0.141l-0.144,-0.144l-0.143,-0.147l-0.143,-0.151l-0.14,-0.154l-0.139,-0.158l-0.138,-0.161l-0.135,-0.166l-0.135,-0.169l-0.132,-0.174l-0.131,-0.177l-0.128,-0.182l-0.126,-0.185l-0.123,-0.189l-0.121,-0.194l-0.118,-0.198l-0.115,-0.202l-0.106,-0.192l-0.061,-0.12l-0.054,-0.106l-0.053,-0.107l-0.053,-0.107l-0.051,-0.109l-0.05,-0.11l-0.05,-0.111l-0.047,-0.112l-0.048,-0.113l-0.046,-0.115l-0.045,-0.114l-0.045,-0.116l-0.042,-0.117l-0.042,-0.118l-0.041,-0.118l-0.04,-0.12l-0.038,-0.121l-0.037,-0.121l-0.036,-0.122l-0.034,-0.123l-0.033,-0.123l-0.032,-0.125l-0.031,-0.125l-0.029,-0.126l-0.028,-0.127l-0.026,-0.127l-0.025,-0.129l-0.023,-0.128l-0.023,-0.129l-0.021,-0.13l-0.019,-0.13l-0.018,-0.131l-0.016,-0.132l-0.014,-0.131l-0.014,-0.132l-0.012,-0.133l-0.01,-0.133l-0.008,-0.133l-0.008,-0.133l-0.006,-0.134l-0.004,-0.133l-0.002,-0.134l-0.001,-0.134l0,-0.134l0.002,-0.135l0.004,-0.134l0.005,-0.135l0.006,-0.134l0.008,-0.134l0.01,-0.134l0.011,-0.135l0.013,-0.134l0.014,-0.133l0.015,-0.134l0.017,-0.133l0.018,-0.134l0.02,-0.133l0.021,-0.133l0.023,-0.132l0.024,-0.132l0.025,-0.132l0.027,-0.131l0.028,-0.131l0.029,-0.131l0.03,-0.13l0.032,-0.13l0.033,-0.129l0.034,-0.129l0.036,-0.128l0.037,-0.128l0.038,-0.128l0.038,-0.127l0.041,-0.126l0.041,-0.126l0.042,-0.125l0.044,-0.125l0.045,-0.125l0.045,-0.123l0.047,-0.124l0.007,-0.017l0.04,-0.106l0.049,-0.122l0.05,-0.134l0.134,-0.19l0.027,-0.038l0.109,-0.162l0.138,-0.197l0.139,-0.196l0.142,-0.193l0.144,-0.192l0.146,-0.189l0.148,-0.186l0.151,-0.184l0.152,-0.182l0.155,-0.179l0.156,-0.176l0.159,-0.174l0.161,-0.172l0.163,-0.169l0.165,-0.165l0.167,-0.164l0.17,-0.16l0.17,-0.157l0.174,-0.155l0.175,-0.152l0.176,-0.148l0.179,-0.145l0.181,-0.142l0.182,-0.139l0.163,-0.121l0.021,-0.016l0.184,-0.134l0.186,-0.13l0.188,-0.128l0.189,-0.123l0.191,-0.12l0.191,-0.117l0.193,-0.114l0.194,-0.11l0.196,-0.106l0.196,-0.103l0.197,-0.099l0.198,-0.096l0.199,-0.091l0.2,-0.089l0.2,-0.084l0.201,-0.081l0.2,-0.077l0.202,-0.074l0.201,-0.071l0.202,-0.066l0.202,-0.063l0.201,-0.059l0.202,-0.055l0.202,-0.053l0.201,-0.048l0.201,-0.046l0.201,-0.042l0.2,-0.038l0.199,-0.035l0.2,-0.032l0.198,-0.029l0.198,-0.026l0.197,-0.022l0.196,-0.02l0.195,-0.015l0.195,-0.014l0.193,-0.01l0.193,-0.008l0.191,-0.005l0.191,-0.002l0.189,0.001Zm0.997,6.227l-0.105,0.002l-0.104,0.002l-0.104,0.005l-0.104,0.006l-0.104,0.007l-0.104,0.009l-0.103,0.01l-0.103,0.011l-0.103,0.013l-0.103,0.015l-0.103,0.015l-0.102,0.017l-0.102,0.019l-0.102,0.02l-0.102,0.022l-0.101,0.023l-0.101,0.024l-0.1,0.027l-0.1,0.027l-0.1,0.03l-0.1,0.031l-0.099,0.032l-0.099,0.034l-0.098,0.036l-0.098,0.037l-0.098,0.039l-0.097,0.041l-0.097,0.043l-0.096,0.043l-0.096,0.046l-0.096,0.047l-0.094,0.05l-0.095,0.05l-0.094,0.053l-0.094,0.054l-0.092,0.056l-0.092,0.058l-0.093,0.06l-0.091,0.061l-0.09,0.063l-0.091,0.065l-0.089,0.067l-0.089,0.069l-0.089,0.071l-0.087,0.072l-0.087,0.074l-0.087,0.077l-0.086,0.078l-0.085,0.08l-0.084,0.082l-0.084,0.084l-0.083,0.087l-0.082,0.087l-0.082,0.09l-0.08,0.092l-0.081,0.094l-0.079,0.096l-0.079,0.099l-0.078,0.099l-0.077,0.103l-0.075,0.104l-0.076,0.106l-0.075,0.109l-0.073,0.111l-0.074,0.112l-0.071,0.115l-0.071,0.117l-0.071,0.12l-0.069,0.121l-0.069,0.124l-0.067,0.125l-0.067,0.128l-0.028,0.056l-0.027,0.056l-0.027,0.055l-0.027,0.055l-0.025,0.055l-0.024,0.055l-0.024,0.055l-0.024,0.055l-0.023,0.054l-0.022,0.055l-0.021,0.054l-0.021,0.055l-0.02,0.054l-0.019,0.054l-0.018,0.054l-0.018,0.054l-0.018,0.054l-0.017,0.053l-0.016,0.054l-0.015,0.053l-0.015,0.054l-0.014,0.053l-0.014,0.053l-0.012,0.052l-0.012,0.054l-0.012,0.052l-0.011,0.053l-0.01,0.053l-0.01,0.052l-0.009,0.052l-0.008,0.053l-0.008,0.051l-0.007,0.052l-0.007,0.052l-0.006,0.052l-0.005,0.051l-0.005,0.052l-0.004,0.051l-0.003,0.051l-0.004,0.051l-0.002,0.052l-0.002,0.05l0,0.051l-0.001,0.051l0,0.05l0.001,0.051l0.002,0.1l0.003,0.051l0.003,0.049l0.008,0.1l0.004,0.049l0.006,0.05l0.005,0.049l0.013,0.099l0.008,0.049l0.008,0.049l0.008,0.048l0.009,0.049l0.01,0.049l0.01,0.049l0.011,0.047l0.011,0.049l0.012,0.048l0.013,0.048l0.013,0.048l0.013,0.047l0.014,0.048l0.014,0.048l0.015,0.047l0.032,0.095l0.033,0.094l0.018,0.046l0.018,0.048l0.019,0.046l0.019,0.047l0.019,0.046l0.02,0.046l0.042,0.092l0.044,0.092l0.045,0.091l0.047,0.091l0.05,0.09l0.051,0.09l0.053,0.089l0.055,0.089l0.056,0.089l0.059,0.087l0.06,0.088l0.063,0.087l0.064,0.087l0.065,0.086l0.067,0.086l0.069,0.085l0.07,0.084l0.073,0.085l0.074,0.083l0.075,0.083l0.077,0.083l0.079,0.082l0.08,0.083l0.081,0.081l0.083,0.081l0.085,0.08l0.086,0.08l0.088,0.08l0.089,0.079l0.09,0.078l0.092,0.078l0.093,0.078l0.094,0.077l0.096,0.076l0.097,0.077l0.098,0.075l0.1,0.075l0.101,0.075l0.102,0.074l0.103,0.074l0.105,0.073l0.106,0.073l0.106,0.073l0.109,0.071l0.109,0.071l0.11,0.072l0.111,0.07l0.112,0.07l0.114,0.07l0.114,0.068l0.115,0.068l0.116,0.069l0.118,0.067l0.118,0.067l0.119,0.067l0.12,0.066l0.121,0.066l0.121,0.065l0.123,0.064l0.123,0.064l0.125,0.064l0.125,0.063l0.125,0.063l0.126,0.062l0.128,0.062l0.128,0.061l0.128,0.061l0.259,0.12l0.13,0.06l0.131,0.058l0.132,0.059l0.132,0.057l0.266,0.115l0.133,0.056l0.135,0.056l0.134,0.055l0.135,0.055l0.136,0.055l0.135,0.054l0.137,0.053l0.137,0.053l0.136,0.052l0.137,0.052l0.138,0.052l0.138,0.051l0.138,0.051l0.139,0.05l0.138,0.049l0.139,0.049l0.277,0.097l0.28,0.094l0.278,0.093l0.28,0.091l0.279,0.088l0.279,0.087l0.279,0.084l0.279,0.084l0.278,0.08l0.278,0.079l0.276,0.077l0.276,0.075l0.274,0.073l0.273,0.07l0.272,0.069l0.27,0.067l0.268,0.065l0.266,0.062l0.265,0.061l0.262,0.059l0.259,0.057l0.256,0.054l0.255,0.053l0.251,0.051l0.248,0.049l0.245,0.046l0.241,0.045l0.238,0.042l0.235,0.041l0.23,0.038l0.226,0.037l0.223,0.034l0.218,0.033l0.213,0.03l0.209,0.028l0.204,0.027l0.199,0.024l0.194,0.022l0.188,0.02l0.184,0.018l0.177,0.016l0.172,0.014l0.166,0.012l0.16,0.01l0.154,0.008l0.147,0.006l0.141,0.003l0.068,0.001l0.066,0l0.064,0l0.064,0l0.061,-0.001l0.059,-0.002l0.057,-0.002l0.056,-0.003l0.054,-0.002l0.051,-0.004l0.051,-0.004l0.048,-0.005l0.046,-0.005l0.044,-0.006l0.043,-0.006l0.04,-0.008l0.039,-0.007l0.036,-0.007l0.035,-0.009l0.032,-0.009l0.03,-0.01l0.028,-0.009l0.027,-0.01l0.024,-0.012l0.021,-0.011l0.02,-0.012l0.017,-0.013l0.015,-0.013l0.014,-0.013l0.006,-0.008l0.004,-0.007l0.014,-0.021l0.014,-0.023l0.014,-0.022l0.012,-0.024l0.013,-0.024l0.012,-0.025l0.012,-0.026l0.012,-0.026l0.011,-0.026l0.011,-0.027l0.01,-0.029l0.01,-0.029l0.01,-0.029l0.009,-0.03l0.009,-0.03l0.009,-0.031l0.008,-0.032l0.008,-0.032l0.014,-0.067l0.014,-0.069l0.012,-0.071l0.01,-0.074l0.008,-0.075l0.008,-0.078l0.006,-0.081l0.004,-0.082l0.003,-0.084l0.001,-0.087l0,-0.088l-0.002,-0.091l-0.002,-0.093l-0.005,-0.094l-0.006,-0.096l-0.008,-0.099l-0.009,-0.1l-0.011,-0.102l-0.012,-0.103l-0.014,-0.106l-0.015,-0.107l-0.017,-0.109l-0.018,-0.11l-0.02,-0.112l-0.022,-0.114l-0.023,-0.115l-0.024,-0.116l-0.026,-0.119l-0.028,-0.119l-0.03,-0.121l-0.03,-0.122l-0.033,-0.123l-0.034,-0.125l-0.035,-0.127l-0.037,-0.127l-0.039,-0.128l-0.04,-0.129l-0.042,-0.131l-0.043,-0.132l-0.045,-0.133l-0.047,-0.133l-0.048,-0.135l-0.05,-0.136l-0.052,-0.137l-0.053,-0.137l-0.055,-0.138l-0.056,-0.139l-0.058,-0.141l-0.06,-0.14l-0.061,-0.141l-0.063,-0.143l-0.065,-0.142l-0.065,-0.143l-0.068,-0.144l-0.07,-0.144l-0.071,-0.144l-0.072,-0.146l-0.075,-0.145l-0.076,-0.146l-0.078,-0.146l-0.08,-0.147l-0.081,-0.147l-0.082,-0.147l-0.085,-0.147l-0.086,-0.148l-0.088,-0.147l-0.089,-0.148l-0.092,-0.148l-0.093,-0.147l-0.094,-0.148l-0.097,-0.148l-0.098,-0.148l-0.1,-0.147l-0.102,-0.148l-0.103,-0.147l-0.105,-0.146l-0.107,-0.147l-0.108,-0.147l-0.11,-0.146l-0.112,-0.146l-0.114,-0.145l-0.115,-0.145l-0.118,-0.144l-0.119,-0.145l-0.12,-0.143l-0.122,-0.143l-0.124,-0.143l-0.127,-0.141l-0.127,-0.141l-0.13,-0.141l-0.131,-0.139l-0.133,-0.139l-0.135,-0.138l-0.137,-0.137l-0.138,-0.137l-0.141,-0.135l-0.142,-0.135l-0.144,-0.133l-0.145,-0.133l-0.074,-0.065l-0.074,-0.066l-0.074,-0.065l-0.076,-0.065l-0.075,-0.065l-0.075,-0.064l-0.077,-0.065l-0.076,-0.064l-0.077,-0.063l-0.078,-0.063l-0.078,-0.064l-0.079,-0.062l-0.079,-0.063l-0.079,-0.061l-0.08,-0.062l-0.08,-0.061l-0.081,-0.061l-0.081,-0.062l-0.082,-0.06l-0.082,-0.06l-0.084,-0.06l-0.083,-0.059l-0.083,-0.059l-0.084,-0.058l-0.084,-0.059l-0.085,-0.058l-0.086,-0.057l-0.086,-0.057l-0.086,-0.056l-0.087,-0.057l-0.087,-0.056l-0.088,-0.056l-0.089,-0.055l-0.089,-0.054l-0.089,-0.055l-0.089,-0.054l-0.09,-0.053l-0.091,-0.054l-0.091,-0.052l-0.092,-0.052l-0.094,-0.053l-0.095,-0.052l-0.095,-0.052l-0.095,-0.051l-0.096,-0.05l-0.096,-0.05l-0.097,-0.049l-0.098,-0.048l-0.098,-0.047l-0.098,-0.048l-0.098,-0.045l-0.099,-0.046l-0.1,-0.044l-0.1,-0.044l-0.099,-0.042l-0.101,-0.043l-0.101,-0.041l-0.101,-0.041l-0.101,-0.04l-0.101,-0.038l-0.102,-0.038l-0.102,-0.037l-0.103,-0.036l-0.103,-0.035l-0.103,-0.035l-0.103,-0.033l-0.103,-0.033l-0.103,-0.031l-0.104,-0.031l-0.104,-0.029l-0.104,-0.028l-0.104,-0.028l-0.105,-0.027l-0.104,-0.025l-0.105,-0.025l-0.104,-0.023l-0.105,-0.022l-0.105,-0.021l-0.105,-0.02l-0.105,-0.019l-0.105,-0.018l-0.106,-0.017l-0.105,-0.016l-0.105,-0.014l-0.106,-0.013l-0.105,-0.012l-0.105,-0.011l-0.105,-0.01l-0.105,-0.008l-0.105,-0.008l-0.105,-0.006l-0.105,-0.004l-0.105,-0.004l-0.105,-0.002l-0.105,-0.001l-0.104,0.001Z" style="fill:#7c7c7c;"/></g><path d="M4.647,47.544l94.526,0l0,46.551c0,2.736 -2.124,4.956 -4.74,4.956l-85.045,0c-2.616,0 -4.741,-2.22 -4.741,-4.956l0,-52.044l0,5.493Zm89.786,-10.449c0.99,0 1.91,0.318 2.671,0.862l-90.387,0c0.761,-0.544 1.681,-0.862 2.671,-0.862l85.045,0Z" style="fill:#ececec;"/><path d="M103.143,32.668c0,-2.191 -1.779,-3.969 -3.97,-3.969l-94.526,0c-2.191,0 -3.97,1.778 -3.97,3.969l0,10.639c0,0.701 0.57,1.271 1.271,1.271l99.925,0c0.701,0 1.27,-0.57 1.27,-1.271l0,-10.639Z" style="fill:#d6d6d6;"/><rect x="46.985" y="28.843" width="9.85" height="69.68" style="fill:#7c7c7c;"/></g></svg>