<?xml version="1.0" encoding="UTF-8" standalone="no"?><!DOCTYPE svg PUBLIC "-//W3C//DTD SVG 1.1//EN" "http://www.w3.org/Graphics/SVG/1.1/DTD/svg11.dtd"><svg width="100%" height="100%" viewBox="0 0 102 10" version="1.1" xmlns="http://www.w3.org/2000/svg" xmlns:xlink="http://www.w3.org/1999/xlink" xml:space="preserve" xmlns:serif="http://www.serif.com/" style="fill-rule:evenodd;clip-rule:evenodd;stroke-linejoin:round;stroke-miterlimit:1.41421;"><g><path d="M8.97,9.348l-1.886,0l-0.75,-1.951l-3.434,0l-0.709,1.951l-1.84,0l3.346,-8.59l1.834,0l3.439,8.59Zm-3.193,-3.399l-1.184,-3.187l-1.16,3.187l2.344,0Z" style="fill:#006a6a;fill-rule:nonzero;"/><path d="M9.908,9.348l0,-8.59l1.687,0l3.516,5.736l0,-5.736l1.611,0l0,8.59l-1.74,0l-3.463,-5.602l0,5.602l-1.611,0Z" style="fill:#006a6a;fill-rule:nonzero;"/><path d="M26.302,9.348l-1.886,0l-0.75,-1.951l-3.434,0l-0.709,1.951l-1.84,0l3.346,-8.59l1.834,0l3.439,8.59Zm-3.193,-3.399l-1.184,-3.187l-1.16,3.187l2.344,0Z" style="fill:#006a6a;fill-rule:nonzero;"/><path d="M27.246,9.348l0,-8.59l1.734,0l0,3.814l3.504,-3.814l2.332,0l-3.234,3.346l3.41,5.244l-2.244,0l-2.362,-4.031l-1.406,1.435l0,2.596l-1.734,0Z" style="fill:#006a6a;fill-rule:nonzero;"/><path d="M43.634,9.348l-1.886,0l-0.75,-1.951l-3.434,0l-0.709,1.951l-1.84,0l3.346,-8.59l1.834,0l3.439,8.59Zm-3.193,-3.399l-1.184,-3.187l-1.16,3.187l2.344,0Z" style="fill:#006a6a;fill-rule:nonzero;"/><path d="M48.609,0.758l3.07,8.59l-1.881,0l-2.173,-6.352l-2.104,6.352l-1.84,0l3.076,-8.59l1.852,0Z" style="fill:#006a6a;fill-rule:nonzero;"/><path d="M53.724,9.348l0,-3.615l-3.146,-4.975l2.033,0l2.021,3.398l1.981,-3.398l1.998,0l-3.158,4.986l0,3.604l-1.729,0Z" style="fill:#006a6a;fill-rule:nonzero;"/><path d="M59.103,0.758l1.734,0l0,2.01c0,1.004 0.127,1.687 0.381,2.051c0.254,0.363 0.711,0.548 1.371,0.556l0,-4.617l1.729,0l0,4.617c0.449,-0.008 0.798,-0.087 1.046,-0.237c0.248,-0.15 0.429,-0.404 0.542,-0.762c0.113,-0.357 0.17,-0.893 0.17,-1.608l0,-2.01l1.728,0l0,2.297c0,0.887 -0.097,1.576 -0.293,2.068c-0.195,0.492 -0.541,0.896 -1.037,1.21c-0.496,0.315 -1.215,0.486 -2.156,0.513l0,2.502l-1.729,0l0,-2.502c-0.898,-0.027 -1.6,-0.191 -2.106,-0.489c-0.506,-0.299 -0.862,-0.697 -1.069,-1.193c-0.207,-0.496 -0.311,-1.199 -0.311,-2.109l0,-2.297Z" style="fill:#006a6a;fill-rule:nonzero;"/><path d="M71.115,9.348l0,-7.137l-2.549,0l0,-1.453l6.826,0l0,1.453l-2.543,0l0,7.137l-1.734,0Z" style="fill:#006a6a;fill-rule:nonzero;"/><path d="M76.511,9.348l0,-8.59l6.369,0l0,1.453l-4.634,0l0,1.904l4.312,0l0,1.448l-4.312,0l0,2.338l4.798,0l0,1.447l-6.533,0Z" style="fill:#006a6a;fill-rule:nonzero;"/><path d="M89.245,9.348l0,-7.137l-2.549,0l0,-1.453l6.826,0l0,1.453l-2.543,0l0,7.137l-1.734,0Z" style="fill:#006a6a;fill-rule:nonzero;"/><path d="M101.497,9.348l-1.887,0l-0.75,-1.951l-3.434,0l-0.709,1.951l-1.839,0l3.345,-8.59l1.834,0l3.44,8.59Zm-3.194,-3.399l-1.183,-3.187l-1.16,3.187l2.343,0Z" style="fill:#006a6a;fill-rule:nonzero;"/></g></svg>