<?xml version="1.0" encoding="UTF-8" standalone="no"?><!DOCTYPE svg PUBLIC "-//W3C//DTD SVG 1.1//EN" "http://www.w3.org/Graphics/SVG/1.1/DTD/svg11.dtd"><svg width="100%" height="100%" viewBox="0 0 122 110" version="1.1" xmlns="http://www.w3.org/2000/svg" xmlns:xlink="http://www.w3.org/1999/xlink" xml:space="preserve" xmlns:serif="http://www.serif.com/" style="fill-rule:evenodd;clip-rule:evenodd;stroke-linejoin:round;stroke-miterlimit:1.41421;"><g id="station"><g><path d="M53.565,89.198l0,-88.887l-52.637,0l52.637,88.887Zm-10.58,-39.581l-22.049,-37.235l22.049,0l0,37.235Z" style="fill:#d6d6d6;fill-rule:nonzero;"/><rect x="33.157" y="0.311" width="5.936" height="12.109" style="fill:#7c7c7c;"/></g><g><path d="M120.846,109.293l0,-60.525l-16.947,-16.948l-43.578,0l0,77.473l60.525,0Z" style="fill:#ececec;fill-rule:nonzero;"/><path d="M120.846,48.768l-16.947,-16.948l0,16.948l16.947,0Z" style="fill:#d6d6d6;fill-rule:nonzero;"/><path d="M73.031,56.031l35.105,0c0.334,0 0.605,-0.272 0.605,-0.605c0,-0.335 -0.271,-0.606 -0.605,-0.606l-35.105,0c-0.334,0 -0.605,0.271 -0.605,0.606c0,0.333 0.266,0.605 0.605,0.605Zm35.105,10.894l-35.105,0c-0.334,0 -0.605,0.271 -0.605,0.605c0,0.335 0.271,0.605 0.605,0.605l35.105,0c0.334,0 0.605,-0.27 0.605,-0.605c0,-0.334 -0.266,-0.605 -0.605,-0.605Zm0,12.105l-35.105,0c-0.334,0 -0.605,0.272 -0.605,0.605c0,0.335 0.271,0.606 0.605,0.606l35.105,0c0.334,0 0.605,-0.271 0.605,-0.606c0,-0.333 -0.266,-0.605 -0.605,-0.605Zm0,12.105l-35.105,0c-0.334,0 -0.605,0.272 -0.605,0.606c0,0.334 0.271,0.605 0.605,0.605l35.105,0c0.334,0 0.605,-0.271 0.605,-0.605c0,-0.334 -0.266,-0.606 -0.605,-0.606Z" style="fill:#bbb;fill-rule:nonzero;"/></g><g><path d="M52.45,80.609l26.826,-64.488c1.783,0.13 2.963,0.965 4.191,1.743l-26.411,64.072l-5.522,6.343l0.916,-7.67Z" style="fill:#7c7c7c;fill-rule:nonzero;"/><path d="M37.984,87.631l31.703,-75.245c1.517,0.436 3.006,0.999 4.415,1.805l-33.595,79.416c-0.429,0.812 -2.896,-5.091 -2.523,-5.974l0,-0.002Z" style="fill:#7c7c7c;fill-rule:nonzero;"/><path d="M69.956,11.936c1.672,0.351 3.073,0.963 4.275,1.774c0.361,-1.047 0.469,-1.623 0.175,-1.783c-0.228,-0.19 -3.203,-1.578 -3.391,-1.474c-0.41,0.03 -0.709,0.572 -1.059,1.483Z" style="fill:#7c7c7c;fill-rule:nonzero;"/><path d="M52.603,80.012c1.195,0.935 2.751,1.54 4.272,1.82l-0.82,0.949c-1.234,-0.239 -2.579,-0.771 -3.679,-1.467l0.227,-1.302Z" style="fill:#7c7c7c;fill-rule:nonzero;"/><path d="M44.467,72.088c1.192,1.362 2.622,2.072 4.379,1.884l-0.474,1.187c-1.612,-0.135 -3.106,-0.593 -4.226,-2.077l0.321,-0.994Z" style="fill:#7c7c7c;fill-rule:nonzero;"/><path d="M38.726,86.76l-1.224,-3.536l9.174,-21.655l0.607,1.045l-7.166,17.28l0.895,1.274l-2.286,5.592Z" style="fill:#7c7c7c;fill-rule:nonzero;"/><path d="M79.509,15.615c1.672,0.351 3.073,0.963 4.276,1.774c0.361,-1.047 0.469,-1.622 0.175,-1.782c-0.23,-0.191 -3.204,-1.579 -3.392,-1.475c-0.41,0.03 -0.708,0.572 -1.059,1.483Z" style="fill:#7c7c7c;fill-rule:nonzero;"/></g></g></svg>